<?xml version="1.0" encoding="utf-8"?>
<!DOCTYPE svg PUBLIC "-//W3C//DTD SVG 1.1//EN" "http://www.w3.org/Graphics/SVG/1.1/DTD/svg11.dtd">
<svg version="1.1" id="Layer_1" xmlns="http://www.w3.org/2000/svg" xmlns:xlink="http://www.w3.org/1999/xlink" x="0px" y="0px"
	 viewBox="0 0 448.6 287.9" enable-background="new 0 0 448.6 287.9" xml:space="preserve">
<g>
	<g>
		<path d="M0,0c0,0,1.2,0.8,3.4,2.3c1.1,0.8,2.4,1.7,3.9,2.9c0.8,0.6,1.6,1.2,2.5,1.9c0.9,0.7,1.8,1.4,2.7,2.2
			c3.8,3,8.3,6.9,13.2,11.4c4.9,4.5,10.3,9.7,15.9,15.5C53,47.7,65.2,61.7,77.2,77.5c6,7.9,11.9,16.1,17.7,24.7
			c5.8,8.5,11.4,17.4,16.8,26.4c5.4,9,10.5,18.1,15.3,27.3c4.8,9.1,9.3,18.3,13.4,27.3c8.2,18,14.7,35.4,19.6,50.9
			c2.4,7.7,4.4,14.9,6,21.4c1.6,6.5,2.8,12.2,3.7,17.1c0.2,1.2,0.4,2.3,0.6,3.4c0.2,1.1,0.3,2.1,0.5,3.1c0.3,1.9,0.5,3.5,0.7,4.9
			c0.3,2.7,0.4,4.1,0.4,4.1s-1.2-0.8-3.4-2.3c-1.1-0.8-2.4-1.7-4-2.9c-0.8-0.6-1.6-1.2-2.5-1.9c-0.9-0.7-1.8-1.4-2.7-2.2
			c-3.8-3-8.3-6.9-13.3-11.3c-4.9-4.5-10.3-9.7-16-15.4c-11.3-11.6-23.5-25.6-35.5-41.4c-6-7.9-11.9-16.1-17.7-24.7
			c-5.8-8.6-11.4-17.4-16.7-26.4c-5.4-9-10.5-18.1-15.3-27.3c-4.8-9.1-9.3-18.3-13.3-27.3c-8.2-18-14.7-35.4-19.6-50.9
			c-2.4-7.7-4.4-14.9-6-21.4c-1.6-6.5-2.8-12.2-3.7-17C2,14.2,1.8,13.1,1.6,12C1.4,10.9,1.3,9.9,1.1,9C0.8,7.1,0.6,5.5,0.4,4.1
			C0.1,1.5,0,0,0,0z"/>
	</g>
	<g>
		<path d="M171.8,287.9c0,0,0-1.4,0.1-4c0-1.3,0.1-2.9,0.2-4.7c0.1-0.9,0.1-1.9,0.2-3c0.1-1,0.2-2.2,0.3-3.3
			c0.4-4.7,1.1-10.3,2.1-16.7c1-6.3,2.3-13.4,4-21c3.4-15.2,8.3-32.4,14.7-50.2c3.2-8.9,6.8-18,10.7-27.1
			c3.9-9.1,8.1-18.2,12.6-27.2c4.5-9,9.2-17.9,14.1-26.5c4.9-8.6,10-16.9,15.2-24.9c10.4-15.9,21.2-30.2,31.3-42
			c5-5.9,9.9-11.2,14.4-15.8c4.5-4.6,8.6-8.5,12.1-11.7c0.9-0.8,1.7-1.5,2.5-2.2c0.8-0.7,1.6-1.3,2.3-1.9c1.4-1.2,2.6-2.2,3.6-3
			c2-1.6,3.2-2.5,3.2-2.5s0,1.4-0.1,4c0,1.3-0.1,2.9-0.2,4.7c-0.1,0.9-0.1,1.9-0.2,3c-0.1,1-0.2,2.2-0.3,3.3
			c-0.4,4.7-1.1,10.3-2.1,16.7c-1,6.4-2.3,13.4-4,21c-3.4,15.2-8.3,32.4-14.7,50.2c-3.2,8.9-6.8,18-10.7,27.1
			c-3.9,9.1-8.2,18.2-12.7,27.2c-4.5,9-9.2,17.9-14.2,26.5c-4.9,8.6-10,16.9-15.3,24.9c-10.4,15.9-21.2,30.2-31.3,42
			c-5,5.9-9.9,11.2-14.4,15.8c-4.5,4.6-8.5,8.6-12.1,11.7c-0.9,0.8-1.7,1.5-2.5,2.2c-0.8,0.7-1.6,1.3-2.3,1.9
			c-1.4,1.2-2.6,2.2-3.6,3C173,287.1,171.8,287.9,171.8,287.9z"/>
	</g>
	<g>
		<path d="M133,0c0,0,1.2,0.8,3.4,2.3c1.1,0.8,2.4,1.7,3.9,2.9c0.8,0.6,1.6,1.2,2.5,1.9c0.9,0.7,1.8,1.4,2.7,2.2
			c3.8,3,8.3,6.9,13.2,11.4c4.9,4.5,10.3,9.7,15.9,15.5c11.3,11.6,23.5,25.6,35.5,41.4c6,7.9,11.9,16.1,17.7,24.7
			c5.8,8.5,11.4,17.4,16.8,26.4c5.4,9,10.5,18.1,15.3,27.3c4.8,9.1,9.3,18.3,13.4,27.3c8.2,18,14.7,35.4,19.6,50.9
			c2.4,7.7,4.4,14.9,6,21.4c1.6,6.5,2.8,12.2,3.7,17.1c0.2,1.2,0.4,2.3,0.6,3.4c0.2,1.1,0.3,2.1,0.5,3.1c0.3,1.9,0.5,3.5,0.7,4.9
			c0.3,2.7,0.4,4.1,0.4,4.1s-1.2-0.8-3.4-2.3c-1.1-0.8-2.4-1.7-4-2.9c-0.8-0.6-1.6-1.2-2.5-1.9c-0.9-0.7-1.8-1.4-2.7-2.2
			c-3.8-3-8.3-6.9-13.3-11.3c-4.9-4.5-10.3-9.7-16-15.4c-11.3-11.6-23.5-25.6-35.5-41.4c-6-7.9-11.9-16.1-17.7-24.7
			c-5.8-8.6-11.4-17.4-16.7-26.4c-5.4-9-10.5-18.1-15.3-27.3c-4.8-9.1-9.3-18.3-13.3-27.3c-8.2-18-14.7-35.4-19.6-50.9
			c-2.4-7.7-4.4-14.9-6-21.4c-1.6-6.5-2.8-12.2-3.7-17c-0.2-1.2-0.4-2.3-0.6-3.4c-0.2-1.1-0.3-2.1-0.5-3.1c-0.3-1.9-0.5-3.5-0.7-4.9
			C133.1,1.5,133,0,133,0z"/>
	</g>
	<g>
		<path d="M304.9,287.9c0,0,0-1.4,0.1-4c0-1.3,0.1-2.9,0.2-4.7c0.1-0.9,0.1-1.9,0.2-3c0.1-1,0.2-2.2,0.3-3.3
			c0.4-4.7,1.1-10.3,2.1-16.7c1-6.3,2.3-13.4,4-21c3.4-15.2,8.3-32.4,14.7-50.2c3.2-8.9,6.8-18,10.7-27.1
			c3.9-9.1,8.1-18.2,12.6-27.2c4.5-9,9.2-17.9,14.1-26.5c4.9-8.6,10-16.9,15.2-24.9c10.4-15.9,21.2-30.2,31.3-42
			c5-5.9,9.9-11.2,14.4-15.8c4.5-4.6,8.6-8.5,12.1-11.7c0.9-0.8,1.7-1.5,2.5-2.2c0.8-0.7,1.6-1.3,2.3-1.9c1.4-1.2,2.6-2.2,3.6-3
			c2-1.6,3.2-2.5,3.2-2.5s0,1.4-0.1,4c0,1.3-0.1,2.9-0.2,4.7c-0.1,0.9-0.1,1.9-0.2,3c-0.1,1-0.2,2.2-0.3,3.3
			c-0.4,4.7-1.1,10.3-2.1,16.7c-1,6.4-2.3,13.4-4,21c-3.4,15.2-8.3,32.4-14.7,50.2c-3.2,8.9-6.8,18-10.7,27.1
			c-3.9,9.1-8.2,18.2-12.7,27.2c-4.5,9-9.2,17.9-14.2,26.5c-4.9,8.6-10,16.9-15.3,24.9c-10.4,15.9-21.2,30.2-31.3,42
			c-5,5.9-9.9,11.2-14.4,15.8c-4.5,4.6-8.5,8.6-12.1,11.7c-0.9,0.8-1.7,1.5-2.5,2.2c-0.8,0.7-1.6,1.3-2.3,1.9
			c-1.4,1.2-2.6,2.2-3.6,3C306,287.1,304.9,287.9,304.9,287.9z"/>
	</g>
</g>
</svg>
